<svg width="70" height="20" viewBox="0 0 70 20" fill="none" xmlns="http://www.w3.org/2000/svg">
<path d="M11.7375 15.625V19H0.7625V0.7875H4.9875V15.625H11.7375ZM31.3328 9.8875C31.3328 11.2042 31.1036 12.4292 30.6453 13.5625C30.1953 14.6958 29.5578 15.6833 28.7328 16.525C27.9078 17.3583 26.912 18.0125 25.7453 18.4875C24.587 18.9625 23.2995 19.2 21.8828 19.2C20.4661 19.2 19.1745 18.9625 18.0078 18.4875C16.8411 18.0125 15.8411 17.3583 15.0078 16.525C14.1828 15.6833 13.5411 14.6958 13.0828 13.5625C12.6328 12.4292 12.4078 11.2042 12.4078 9.8875C12.4078 8.57083 12.6328 7.34583 13.0828 6.2125C13.5411 5.07917 14.1828 4.09583 15.0078 3.2625C15.8411 2.42917 16.8411 1.775 18.0078 1.3C19.1745 0.825 20.4661 0.587499 21.8828 0.587499C23.2995 0.587499 24.587 0.829166 25.7453 1.3125C26.912 1.7875 27.9078 2.44167 28.7328 3.275C29.5578 4.10833 30.1953 5.09167 30.6453 6.225C31.1036 7.35833 31.3328 8.57917 31.3328 9.8875ZM27.0078 9.8875C27.0078 8.9875 26.8911 8.17917 26.6578 7.4625C26.4245 6.7375 26.087 6.125 25.6453 5.625C25.212 5.125 24.6786 4.74167 24.0453 4.475C23.412 4.20833 22.6911 4.075 21.8828 4.075C21.0661 4.075 20.337 4.20833 19.6953 4.475C19.062 4.74167 18.5245 5.125 18.0828 5.625C17.6495 6.125 17.3161 6.7375 17.0828 7.4625C16.8495 8.17917 16.7328 8.9875 16.7328 9.8875C16.7328 10.7958 16.8495 11.6125 17.0828 12.3375C17.3161 13.0542 17.6495 13.6625 18.0828 14.1625C18.5245 14.6625 19.062 15.0458 19.6953 15.3125C20.337 15.5708 21.0661 15.7 21.8828 15.7C22.6911 15.7 23.412 15.5708 24.0453 15.3125C24.6786 15.0458 25.212 14.6625 25.6453 14.1625C26.087 13.6625 26.4245 13.0542 26.6578 12.3375C26.8911 11.6125 27.0078 10.7958 27.0078 9.8875ZM42.5691 9.5625H49.0441V17.25C48.1108 17.9333 47.115 18.4292 46.0566 18.7375C45.0066 19.0458 43.9066 19.2 42.7566 19.2C41.2566 19.2 39.89 18.9667 38.6566 18.5C37.4316 18.025 36.3816 17.375 35.5066 16.55C34.6316 15.7167 33.9566 14.7333 33.4816 13.6C33.0066 12.4583 32.7691 11.2208 32.7691 9.8875C32.7691 8.52917 32.9941 7.28333 33.4441 6.15C33.8941 5.00833 34.5358 4.025 35.3691 3.2C36.2108 2.375 37.2233 1.73333 38.4066 1.275C39.5983 0.816666 40.9275 0.587499 42.3941 0.587499C43.1525 0.587499 43.865 0.649999 44.5316 0.774999C45.1983 0.899999 45.8108 1.07083 46.3691 1.2875C46.9358 1.50417 47.4525 1.7625 47.9191 2.0625C48.3858 2.3625 48.8025 2.6875 49.1691 3.0375L47.9441 4.9C47.7525 5.19167 47.5025 5.37083 47.1941 5.4375C46.8941 5.50417 46.5691 5.42917 46.2191 5.2125C45.8858 5.0125 45.5691 4.84167 45.2691 4.7C44.9775 4.55 44.6775 4.42917 44.3691 4.3375C44.0608 4.24583 43.7358 4.17917 43.3941 4.1375C43.0525 4.09583 42.6691 4.075 42.2441 4.075C41.4525 4.075 40.74 4.21667 40.1066 4.5C39.4733 4.775 38.9316 5.16667 38.4816 5.675C38.04 6.18333 37.6983 6.79583 37.4566 7.5125C37.215 8.22083 37.0941 9.0125 37.0941 9.8875C37.0941 10.8542 37.2275 11.7125 37.4941 12.4625C37.7608 13.2125 38.1358 13.8458 38.6191 14.3625C39.1108 14.8792 39.6941 15.275 40.3691 15.55C41.0525 15.8167 41.8066 15.95 42.6316 15.95C43.14 15.95 43.5983 15.9 44.0066 15.8C44.4233 15.7 44.8275 15.5667 45.2191 15.4V12.6375H43.4191C43.1525 12.6375 42.9441 12.5667 42.7941 12.425C42.6441 12.2833 42.5691 12.1042 42.5691 11.8875V9.5625ZM69.7605 9.8875C69.7605 11.2042 69.5314 12.4292 69.073 13.5625C68.623 14.6958 67.9855 15.6833 67.1605 16.525C66.3355 17.3583 65.3397 18.0125 64.173 18.4875C63.0147 18.9625 61.7272 19.2 60.3105 19.2C58.8939 19.2 57.6022 18.9625 56.4355 18.4875C55.2689 18.0125 54.2689 17.3583 53.4355 16.525C52.6105 15.6833 51.9689 14.6958 51.5105 13.5625C51.0605 12.4292 50.8355 11.2042 50.8355 9.8875C50.8355 8.57083 51.0605 7.34583 51.5105 6.2125C51.9689 5.07917 52.6105 4.09583 53.4355 3.2625C54.2689 2.42917 55.2689 1.775 56.4355 1.3C57.6022 0.825 58.8939 0.587499 60.3105 0.587499C61.7272 0.587499 63.0147 0.829166 64.173 1.3125C65.3397 1.7875 66.3355 2.44167 67.1605 3.275C67.9855 4.10833 68.623 5.09167 69.073 6.225C69.5314 7.35833 69.7605 8.57917 69.7605 9.8875ZM65.4355 9.8875C65.4355 8.9875 65.3189 8.17917 65.0855 7.4625C64.8522 6.7375 64.5147 6.125 64.073 5.625C63.6397 5.125 63.1064 4.74167 62.473 4.475C61.8397 4.20833 61.1189 4.075 60.3105 4.075C59.4939 4.075 58.7647 4.20833 58.123 4.475C57.4897 4.74167 56.9522 5.125 56.5105 5.625C56.0772 6.125 55.7439 6.7375 55.5105 7.4625C55.2772 8.17917 55.1605 8.9875 55.1605 9.8875C55.1605 10.7958 55.2772 11.6125 55.5105 12.3375C55.7439 13.0542 56.0772 13.6625 56.5105 14.1625C56.9522 14.6625 57.4897 15.0458 58.123 15.3125C58.7647 15.5708 59.4939 15.7 60.3105 15.7C61.1189 15.7 61.8397 15.5708 62.473 15.3125C63.1064 15.0458 63.6397 14.6625 64.073 14.1625C64.5147 13.6625 64.8522 13.0542 65.0855 12.3375C65.3189 11.6125 65.4355 10.7958 65.4355 9.8875Z" fill="#2B74B9"/>
</svg>
